# xmcd
#
# Track frame offsets: 
#        150
#        12974
#        22670
#        39718
#        57272
#        70526
#        85760
#        96855
#        115392
#        128418
#        142820
#        164181
#        176822
#        196253
#        213512
#
# Disc length: 3014 seconds
#
# Revision: 6
# Processed by: cddbd v1.5.2PL0 Copyright (c) Steve Scherf et al.
# Submitted via: ExactAudioCopy v0.99pb5
#
DISCID=c60bc40f
DTITLE=Various Artist - Classic Country - TL 626-36 - Road Songs - CD 2
DYEAR=2003
DGENRE=Country
TTITLE0=Jerry Reed - East bound and down
TTITLE1=Waylon Jennings - Theme from Dukes Of Hazzard (Good ol' boys)
TTITLE2=Chely Wright - Shut up and drive
TTITLE3=Dan Seals - Big wheels in the moonlight
TTITLE4=Larry Gatlin and The Gatlin Brothers - Houston (means I'm one da
TTITLE4=y closer to you)
TTITLE5=Kathy Mattea - Eighteen wheels and a dozen roses
TTITLE6=George Hamilton IV - Truck drivin' man
TTITLE7=Roger Miller - Me and Bobby McGee
TTITLE8=Sawyer Brown - Six days on the road
TTITLE9=Don Williams - Tulsa time
TTITLE10=Trisha Yearwood - On a bus to St. Cloud
TTITLE11=Aaron Tippin - There ain't nothing wrong with the radio
TTITLE12=Mac Davis - Texas in my rear view mirror
TTITLE13=Randy Travis - King of the road
TTITLE14=Hank Snow - I've been everywhere
EXTD=
EXTT0=
EXTT1=
EXTT2=
EXTT3=
EXTT4=
EXTT5=
EXTT6=
EXTT7=
EXTT8=
EXTT9=
EXTT10=
EXTT11=
EXTT12=
EXTT13=
EXTT14=
PLAYORDER=
